<!DOCTYPE svg PUBLIC "-//W3C//DTD SVG 20010904//EN" "http://www.w3.org/TR/2001/REC-SVG-20010904/DTD/svg10.dtd">
<svg version="1.0" xmlns="http://www.w3.org/2000/svg" width="1600px" height="800px" viewBox="0 0 16000 8000" preserveAspectRatio="xMidYMid meet">
<g id="layer1" fill="#000000" stroke="none">
 <path d="M3925 6663 c-62 -8 -140 -36 -180 -63 -134 -92 -203 -234 -207 -430 -2 -99 15 -205 42 -259 4 -9 22 -52 41 -96 98 -238 235 -435 478 -690 91 -95 248 -240 341 -315 30 -25 68 -56 83 -70 l28 -26 -83 -22 c-46 -12 -108 -30 -138 -38 -30 -9 -86 -23 -125 -32 -38 -9 -74 -20 -80 -23 -5 -4 -43 -12 -83 -19 -40 -8 -75 -17 -78 -22 -3 -4 -16 -8 -30 -8 -13 0 -32 -4 -42 -9 -9 -5 -66 -18 -127 -30 -147 -29 -157 -31 -180 -41 -20 -8 -77 -19 -145 -26 -19 -2 -52 -9 -73 -16 -43 -13 -54 -7 -40 25 6 12 19 42 28 67 9 25 41 77 71 116 30 39 54 75 54 79 0 8 53 125 76 167 8 14 14 33 14 41 0 9 3 17 8 19 11 5 42 77 42 99 0 26 -79 103 -122 119 -18 7 -54 20 -79 31 -70 28 -126 35 -147 17 -9 -8 -48 -32 -87 -53 -38 -21 -76 -45 -84 -52 -7 -8 -29 -22 -50 -32 -20 -11 -46 -29 -58 -40 -12 -12 -25 -21 -28 -21 -8 0 -111 -76 -156 -114 -20 -17 -56 -47 -80 -66 -110 -88 -348 -339 -470 -495 -29 -38 -57 -71 -61 -73 -5 -2 -8 -10 -8 -17 0 -7 -4 -15 -9 -17 -14 -5 -221 -319 -221 -335 0 -7 -3 -13 -8 -13 -4 0 -25 -35 -47 -77 -22 -43 -43 -80 -46 -83 -11 -10 -79 -144 -79 -157 0 -6 -7 -16 -16 -21 -9 -5 -16 -12 -15 -15 0 -9 -22 -61 -70 -165 -21 -46 -39 -91 -39 -98 0 -8 -4 -14 -8 -14 -4 0 -8 -10 -9 -22 -1 -11 -6 -24 -10 -27 -5 -3 -28 -55 -52 -116 -49 -123 -66 -238 -70 -455 -4 -245 66 -410 248 -585 64 -62 198 -165 241 -187 14 -6 39 -22 55 -33 26 -19 148 -80 305 -153 55 -26 237 -94 303 -113 26 -7 47 -16 47 -20 0 -4 12 -9 28 -12 67 -13 89 -19 120 -33 18 -8 60 -21 95 -29 108 -24 222 -61 291 -93 l67 -31 182 5 c100 2 222 9 270 15 114 14 246 61 312 111 6 5 37 26 70 47 101 66 228 188 344 331 34 41 67 82 74 90 45 52 59 89 52 147 -3 32 -10 74 -15 93 -23 93 -30 119 -46 175 -9 33 -20 65 -24 70 -4 6 -11 21 -15 35 -18 61 -163 333 -197 370 -25 26 -23 41 11 83 54 69 60 111 26 200 -4 9 7 30 26 51 30 35 31 39 21 74 -6 20 -16 64 -22 97 -12 63 -38 169 -48 195 -5 13 -27 108 -35 150 -12 62 -32 137 -39 144 -11 13 -10 53 2 90 6 17 17 57 26 89 l15 57 40 0 c39 0 130 -20 139 -30 3 -4 43 -21 90 -40 79 -31 268 -136 298 -167 7 -7 32 -26 55 -42 23 -16 51 -40 62 -53 53 -63 112 -147 129 -183 10 -22 25 -53 32 -70 15 -33 32 -106 41 -176 4 -38 16 -59 57 -107 28 -33 69 -82 90 -110 l39 -51 71 6 c56 4 75 10 90 27 56 65 102 121 112 135 14 21 1 257 -20 361 -25 126 -70 275 -87 294 -5 6 -9 18 -9 29 0 16 -32 107 -81 229 -25 61 -24 62 11 42 33 -20 44 -43 61 -129 6 -33 15 -64 19 -70 5 -5 11 -28 15 -50 7 -38 33 -108 56 -148 5 -10 7 -22 4 -27 -3 -4 -2 -10 3 -12 4 -1 27 -43 52 -93 62 -128 158 -262 264 -369 157 -158 194 -185 387 -283 57 -29 110 -53 119 -53 9 0 20 -4 26 -10 5 -5 18 -11 29 -13 11 -2 34 -10 50 -16 46 -20 227 -59 344 -75 156 -21 377 -28 393 -12 7 7 27 17 45 23 18 7 60 24 94 40 l61 28 -5 80 c-7 92 -25 194 -56 313 -20 75 -27 99 -52 157 -4 11 -16 45 -25 75 -10 30 -20 57 -23 60 -13 11 -50 139 -56 195 -4 33 -12 74 -18 92 -19 57 20 270 66 358 l13 26 27 -53 c50 -100 67 -158 72 -241 6 -86 23 -244 31 -287 3 -14 7 -45 10 -70 2 -25 8 -61 14 -80 34 -130 51 -229 55 -335 8 -221 10 -228 70 -292 l52 -56 59 7 c47 5 65 13 93 39 39 37 120 159 124 187 2 11 6 23 10 26 18 18 4 114 -25 179 -10 23 -7 625 4 625 3 0 9 -14 13 -30 4 -17 12 -36 18 -43 7 -6 30 -48 52 -92 21 -44 43 -81 47 -83 4 -2 8 -9 8 -15 1 -7 21 -43 45 -82 25 -38 54 -86 64 -106 11 -19 27 -41 35 -48 9 -8 16 -17 16 -21 0 -31 174 -197 240 -229 95 -46 158 -38 219 27 38 42 112 192 131 267 7 28 17 55 21 60 4 6 15 44 24 85 9 41 21 85 26 98 5 13 9 40 9 60 0 21 4 42 10 48 5 5 11 28 13 50 2 23 7 46 11 53 4 6 9 39 12 74 3 34 9 78 14 97 15 56 96 199 133 234 90 85 127 96 224 70 l65 -17 50 51 c28 29 55 52 60 52 8 0 3 144 -7 196 -9 45 -154 110 -255 113 -24 1 -49 6 -55 10 -5 5 -42 6 -80 2 -56 -5 -78 -12 -110 -36 -67 -50 -106 -87 -157 -150 -27 -33 -54 -66 -60 -74 -7 -8 -34 -50 -60 -93 -70 -116 -124 -284 -187 -591 -15 -70 -31 -128 -36 -128 -10 -1 -26 24 -90 141 -20 36 -40 72 -45 80 -5 8 -20 38 -34 65 -23 48 -43 78 -169 253 -78 109 -279 312 -308 312 -5 0 -21 7 -34 16 -34 22 -116 10 -154 -22 l-29 -24 -41 51 c-23 28 -41 62 -41 75 0 20 -5 24 -29 24 -35 0 -91 19 -91 31 0 5 -13 9 -30 9 -16 0 -30 -4 -30 -10 0 -5 -17 -12 -37 -16 -101 -18 -162 -54 -263 -151 -52 -51 -71 -63 -97 -63 -36 0 -39 -6 -18 -33 12 -17 7 -27 -47 -103 -60 -84 -61 -87 -85 -212 -13 -70 -24 -146 -24 -170 -1 -47 -2 -47 -54 2 -11 10 -36 30 -55 45 -19 14 -46 35 -59 46 -70 59 -114 94 -160 125 -29 19 -64 45 -79 58 -15 13 -43 32 -63 42 -21 11 -43 26 -52 34 -22 22 -172 103 -287 155 -54 24 -162 51 -209 51 -19 0 -49 -5 -68 -12 -30 -11 -39 -9 -97 20 -35 18 -69 32 -75 32 -6 0 -11 3 -11 8 0 7 19 16 158 77 34 15 62 31 62 34 0 4 17 13 38 20 42 16 172 87 249 137 28 19 55 34 60 34 5 0 16 8 24 18 9 9 37 34 63 55 54 45 57 63 25 169 -16 56 -29 78 -72 121 -29 29 -64 57 -77 64 -97 45 -131 55 -209 62 -95 9 -95 9 -151 -72 -23 -33 -156 -144 -199 -167 -14 -7 -30 -17 -35 -22 -33 -28 -222 -127 -243 -128 -7 0 -13 -4 -13 -9 0 -5 -9 -11 -20 -14 -22 -6 -41 18 -60 78 -7 22 -18 49 -25 60 -6 11 -18 38 -25 60 -7 22 -17 45 -21 51 -6 7 -1 18 11 29 24 21 25 41 6 81 -8 16 -26 56 -41 89 -47 107 -52 119 -104 228 -28 59 -53 117 -56 130 -3 12 -19 37 -35 55 -16 18 -34 56 -41 85 -12 51 -24 84 -68 179 -11 26 -21 50 -21 53 0 3 -16 31 -35 61 -19 30 -35 57 -35 61 0 4 -32 49 -71 100 -153 200 -333 318 -502 326 -40 2 -85 2 -102 0z m174 -434 c31 -15 74 -47 97 -71 44 -47 104 -122 104 -131 0 -4 13 -28 28 -54 16 -26 29 -52 30 -58 1 -9 7 -24 47 -120 7 -16 16 -50 20 -75 4 -25 12 -51 19 -59 6 -8 11 -57 12 -120 0 -58 5 -115 11 -126 11 -19 34 -97 48 -160 6 -28 5 -28 -47 20 -119 110 -246 251 -321 355 -34 47 -64 87 -68 90 -4 3 -14 21 -23 40 -9 19 -29 56 -45 81 -16 25 -32 57 -36 70 -3 13 -17 49 -30 80 -36 82 -48 184 -28 227 28 59 80 62 182 11z m-1202 -1718 c-7 -54 -52 -149 -85 -181 -42 -40 -103 -60 -182 -60 -39 0 -70 3 -70 8 0 11 142 141 162 148 10 3 18 9 18 13 0 4 30 27 68 52 37 24 69 47 70 51 2 5 8 8 14 8 7 0 9 -15 5 -39z m908 -602 c-8 -68 -15 -147 -15 -176 0 -31 -4 -53 -11 -53 -13 0 -3 -123 18 -205 60 -241 60 -235 30 -235 -19 0 -27 7 -32 27 -9 36 -87 134 -124 156 -17 10 -37 24 -44 32 -8 8 -43 30 -78 49 -35 19 -70 44 -77 56 -15 25 -29 26 -34 3 -3 -12 -9 -4 -17 21 -24 70 -70 108 -186 152 -23 9 -33 11 -56 13 -11 1 -19 14 -23 37 -4 19 -10 42 -13 50 -3 10 4 16 26 20 17 4 31 10 31 14 0 4 15 10 33 14 35 7 160 44 192 57 11 4 47 13 80 19 57 11 153 35 185 48 18 7 124 29 128 26 1 -1 -4 -57 -13 -125z m2210 65 c47 -30 145 -101 172 -124 7 -5 16 -10 22 -10 5 0 11 -4 13 -8 2 -7 90 -76 237 -187 14 -11 31 -24 38 -30 6 -5 44 -37 83 -70 194 -161 419 -415 367 -415 -19 0 -110 31 -121 41 -6 5 -20 9 -33 9 -13 0 -23 5 -23 10 0 6 -7 10 -16 10 -39 0 -371 181 -404 220 -3 3 -27 24 -54 45 -121 97 -263 291 -297 406 -7 21 -16 39 -21 39 -4 0 -8 9 -8 20 0 11 -7 36 -15 56 -10 24 -11 33 -2 27 7 -4 35 -21 62 -39z m-3843 -320 c46 -23 63 -26 179 -27 114 -2 129 -4 129 -19 0 -17 57 -67 82 -72 7 -2 20 -6 28 -9 8 -3 24 -7 35 -9 26 -5 25 -24 -9 -221 -15 -87 -24 -167 -21 -178 4 -10 2 -19 -3 -19 -5 0 -12 -53 -16 -117 -4 -65 -10 -160 -14 -211 -4 -52 -4 -201 0 -332 l7 -238 58 -56 c69 -67 95 -70 182 -27 78 40 154 127 207 236 l34 70 -9 245 c-14 384 -4 520 45 595 25 38 56 31 140 -32 42 -32 97 -74 123 -93 210 -157 520 -454 641 -615 87 -115 157 -248 166 -315 4 -28 11 -53 15 -56 5 -3 9 -16 9 -28 0 -83 -147 -214 -292 -261 -163 -53 -207 -58 -473 -59 -209 -1 -262 2 -325 17 -128 31 -242 66 -282 87 -21 11 -38 18 -38 15 0 -2 -57 25 -127 61 -185 93 -305 170 -489 310 -85 64 -95 73 -229 191 -89 79 -78 57 -127 251 -15 58 -4 152 32 297 31 123 84 284 106 320 6 11 15 34 19 50 3 17 19 57 34 90 15 33 39 88 52 123 21 55 27 62 52 62 15 0 51 -12 79 -26z"/>
 <path d="M12611 5199 c-46 -4 -87 -12 -90 -16 -3 -5 -31 -14 -63 -20 -34 -7 -83 -28 -123 -54 l-67 -42 -41 21 c-96 47 -138 62 -168 62 -17 0 -72 10 -121 21 -156 37 -261 12 -367 -87 -53 -49 -130 -166 -170 -259 -65 -148 -146 -514 -158 -713 -3 -56 -10 -105 -15 -108 -4 -3 -8 -38 -8 -77 0 -40 -4 -99 -10 -132 -8 -53 -18 -375 -19 -644 l-1 -93 -121 4 c-67 3 -124 10 -128 15 -3 6 -26 13 -51 16 -68 8 -511 98 -575 117 -16 5 -73 16 -125 26 -52 9 -98 22 -102 28 -12 18 -9 213 4 299 9 59 9 83 0 97 -9 14 -6 22 13 40 19 18 23 29 18 49 -3 14 -10 29 -16 32 -8 6 27 118 53 170 5 9 18 60 30 115 12 54 31 137 42 184 10 47 23 103 27 125 5 22 18 62 30 88 11 27 21 57 21 67 0 10 3 20 8 22 4 2 20 39 36 83 16 44 42 115 57 158 35 95 36 107 6 107 -15 0 -37 15 -60 41 -25 27 -43 39 -54 35 -10 -2 -44 -12 -75 -20 -32 -9 -58 -21 -58 -26 0 -5 -8 -11 -18 -14 -21 -7 -112 -93 -112 -106 0 -5 -6 -15 -12 -22 -26 -28 -48 -68 -103 -193 -7 -16 -18 -50 -25 -75 -6 -25 -15 -54 -20 -65 -4 -11 -14 -56 -21 -100 -6 -44 -15 -84 -19 -90 -4 -5 -11 -36 -14 -67 -4 -32 -12 -60 -17 -64 -5 -3 -7 -9 -4 -14 3 -5 -4 -90 -15 -189 -11 -99 -17 -187 -14 -196 4 -9 2 -20 -4 -24 -5 -3 -13 -51 -15 -106 -3 -55 -11 -146 -18 -203 -10 -85 -14 -100 -26 -91 -7 7 -16 9 -20 6 -10 -11 -43 13 -43 31 -1 34 -70 92 -110 92 -11 0 -20 4 -20 8 0 5 -13 7 -30 4 -23 -3 -34 -14 -49 -46 -12 -22 -54 -76 -96 -119 -72 -75 -75 -81 -75 -125 0 -26 4 -52 8 -59 11 -17 56 -33 154 -53 85 -18 90 -20 135 -70 62 -67 130 -163 156 -220 17 -37 23 -81 33 -250 7 -113 17 -241 23 -285 6 -44 16 -120 22 -170 6 -49 14 -97 17 -105 3 -8 7 -26 8 -40 4 -39 23 -123 33 -145 5 -11 19 -48 31 -82 22 -62 60 -129 96 -172 12 -13 30 -21 51 -21 32 0 83 18 83 29 0 4 13 14 29 24 53 31 78 121 45 158 -23 26 0 86 44 112 32 19 39 35 23 52 -17 19 -20 83 -5 96 20 16 17 46 -5 59 -11 5 -23 20 -27 32 -4 13 -10 25 -14 28 -11 7 -48 155 -55 220 -4 30 -10 64 -15 75 -5 11 -11 38 -13 60 -2 22 -14 103 -27 180 -21 132 -21 161 -4 229 4 18 2 31 -5 35 -6 4 -9 15 -5 24 13 35 158 19 629 -70 77 -14 149 -27 160 -28 11 -1 27 -5 35 -8 8 -3 60 -20 115 -38 155 -49 218 -89 221 -137 0 -15 4 -43 7 -62 4 -19 8 -51 10 -71 3 -19 9 -45 16 -56 6 -12 11 -37 11 -55 0 -19 4 -38 9 -44 5 -5 12 -38 15 -73 4 -36 10 -69 13 -74 3 -5 12 -46 19 -91 8 -44 18 -90 23 -101 4 -11 16 -47 26 -80 10 -33 22 -64 27 -70 4 -5 8 -16 8 -25 1 -21 39 -96 77 -151 21 -30 48 -54 77 -67 42 -20 49 -20 120 -8 48 8 90 23 116 40 48 32 96 95 105 139 4 18 12 37 17 44 15 19 19 196 4 224 -7 13 -25 48 -40 77 -16 29 -32 55 -37 58 -6 3 4 22 22 41 61 70 92 179 66 231 -13 27 -13 32 0 45 30 30 -26 141 -107 212 -19 16 -42 38 -51 47 -10 9 -30 25 -45 34 -65 43 -98 232 -114 664 -8 230 -12 267 -26 277 -15 11 -15 17 -6 38 16 35 15 60 -4 96 -15 29 -14 31 10 56 27 27 34 71 15 90 -9 9 -6 19 8 40 11 15 26 46 33 68 7 22 17 51 21 65 5 14 11 49 14 79 3 29 10 61 15 71 6 10 10 40 11 67 0 83 25 186 57 246 18 31 32 64 32 72 0 8 5 15 10 15 6 0 10 6 10 13 0 6 9 23 19 36 18 23 18 23 51 5 18 -11 43 -25 56 -32 12 -7 34 -26 48 -42 24 -29 25 -34 18 -123 -10 -132 -9 -294 6 -607 14 -314 33 -437 79 -503 l27 -39 60 6 c32 3 77 6 99 6 33 0 46 6 73 36 40 42 76 115 100 201 16 57 16 78 5 210 -7 82 -16 173 -21 203 -16 95 -21 198 -10 205 5 3 10 38 10 78 0 64 3 74 27 100 26 26 28 33 25 100 -2 58 1 80 20 117 24 47 61 86 91 96 9 3 17 9 17 13 0 4 24 15 53 26 28 10 57 21 62 25 6 4 22 10 37 12 24 4 29 1 37 -26 23 -71 22 -110 -3 -206 -32 -116 -59 -250 -52 -257 2 -3 -1 -26 -8 -51 -8 -26 -14 -65 -15 -87 -1 -22 -6 -42 -12 -45 -5 -4 -10 -29 -11 -56 -1 -27 -5 -54 -10 -60 -4 -6 -10 -33 -12 -60 -3 -27 -12 -114 -20 -194 -17 -162 -15 -655 3 -739 5 -25 15 -95 22 -156 6 -60 22 -182 36 -270 14 -88 27 -190 30 -227 3 -38 9 -68 13 -68 5 0 10 -26 13 -58 6 -60 20 -154 36 -237 5 -27 20 -102 31 -165 12 -63 26 -124 30 -135 5 -11 14 -38 20 -60 18 -60 60 -143 75 -149 8 -3 105 1 216 8 236 15 232 13 244 123 9 75 9 821 0 862 -2 14 -10 152 -16 306 -25 641 -36 775 -83 1005 -2 14 -10 66 -17 115 -6 50 -14 95 -18 100 -3 6 -11 37 -18 70 -6 33 -17 80 -24 105 -14 53 -19 178 -8 200 4 8 13 42 19 75 7 33 16 69 20 81 9 24 135 102 180 110 16 4 30 11 30 17 0 10 120 4 151 -8 14 -5 15 -11 3 -44 -7 -21 -22 -91 -34 -157 -12 -65 -28 -148 -37 -184 -8 -36 -18 -90 -23 -120 -4 -30 -13 -77 -19 -105 -6 -27 -12 -75 -13 -105 -2 -30 -6 -57 -10 -60 -20 -16 -28 -612 -9 -750 5 -41 15 -127 21 -190 6 -63 15 -137 20 -163 6 -26 10 -72 10 -102 0 -30 5 -57 10 -60 6 -3 10 -35 10 -70 0 -35 5 -67 10 -70 6 -3 10 -29 10 -57 0 -29 4 -65 9 -82 5 -17 15 -71 21 -121 17 -136 20 -158 30 -189 6 -16 10 -44 10 -62 0 -19 4 -34 8 -34 4 0 13 -30 20 -68 27 -156 43 -213 75 -273 l34 -64 144 2 c79 2 151 6 159 9 8 3 54 5 102 4 81 -1 88 0 102 22 25 39 38 181 38 423 0 380 -21 1235 -31 1310 -13 87 -20 151 -27 235 -3 36 -9 74 -13 85 -8 17 -15 64 -38 250 -3 22 -9 45 -13 50 -4 6 -11 39 -15 75 -3 36 -12 85 -20 110 -7 25 -16 67 -20 94 -4 27 -10 56 -15 65 -4 9 -18 61 -31 115 l-23 100 27 105 c15 58 41 166 58 238 17 73 35 135 40 139 20 12 8 59 -22 83 -30 23 -33 23 -127 14 -68 -7 -112 -18 -149 -35 -45 -22 -55 -24 -70 -12 -10 7 -27 14 -38 14 -11 0 -56 16 -100 35 -105 46 -201 48 -327 9 -46 -15 -87 -31 -92 -35 -6 -5 -35 -9 -65 -9 -31 -1 -74 -8 -96 -16 -22 -8 -49 -18 -60 -21 -11 -3 -28 -15 -38 -25 -12 -12 -23 -16 -30 -11 -7 5 -33 26 -59 46 -60 48 -208 124 -230 119 -10 -2 -18 1 -18 7 0 6 -8 10 -17 10 -10 -1 -56 -5 -102 -10z m1438 -1949 c6 -80 10 -206 10 -280 -1 -130 -2 -133 -14 -85 -7 28 -14 73 -14 101 -1 27 -5 54 -10 60 -17 17 -36 465 -24 574 6 51 7 46 24 -85 9 -77 22 -205 28 -285z"/>
 <path d="M12290 3217 c-36 -17 -88 -66 -112 -107 -12 -19 -25 -37 -28 -40 -4 -3 -19 -26 -33 -51 -20 -33 -27 -60 -27 -96 0 -64 33 -159 67 -195 26 -27 31 -28 125 -28 92 0 196 16 184 28 -3 2 9 12 27 21 17 9 45 35 62 59 29 43 30 46 33 186 l3 142 -37 34 c-20 18 -53 39 -73 46 -45 16 -157 16 -191 1z"/>
 </g>

</svg>